<svg width="199" height="40" viewBox="0 0 199 40" fill="none" xmlns="http://www.w3.org/2000/svg">
<path d="M7.992 5.736V32.76H20.952L20.136 39H0.12V5.736H7.992ZM45.3863 39H38.8103L38.4743 35.784C36.6183 38.472 34.0423 39.816 30.7463 39.816C28.4103 39.816 26.6343 39.112 25.4183 37.704C24.2343 36.296 23.6423 34.328 23.6423 31.8V13.512H31.2263V30.84C31.2263 32.088 31.4183 32.968 31.8023 33.48C32.2183 33.96 32.8423 34.2 33.6743 34.2C35.2743 34.2 36.6503 33.208 37.8023 31.224V13.512H45.3863V39ZM58.935 13.512V39H51.351V13.512H58.935ZM55.095 0.0719976C56.407 0.0719976 57.479 0.487998 58.311 1.32C59.175 2.12 59.607 3.144 59.607 4.392C59.607 5.64 59.175 6.68 58.311 7.512C57.479 8.312 56.407 8.712 55.095 8.712C53.783 8.712 52.711 8.312 51.879 7.512C51.047 6.68 50.631 5.64 50.631 4.392C50.631 3.144 51.047 2.12 51.879 1.32C52.711 0.487998 53.783 0.0719976 55.095 0.0719976ZM82.8499 13.512V18.84L71.3299 33.24H83.0899L82.4179 39H62.5459V33.624L74.1139 19.224H63.5539V13.512H82.8499ZM109.168 4.92C111.664 4.92 113.824 5.272 115.648 5.976C117.504 6.68 119.184 7.752 120.688 9.192L117.04 13.464C114.768 11.608 112.336 10.68 109.744 10.68C108.368 10.68 107.28 10.968 106.48 11.544C105.68 12.088 105.28 12.888 105.28 13.944C105.28 14.68 105.456 15.288 105.808 15.768C106.16 16.216 106.784 16.648 107.68 17.064C108.576 17.48 109.92 17.976 111.712 18.552C115.104 19.64 117.6 20.984 119.2 22.584C120.8 24.152 121.6 26.392 121.6 29.304C121.6 31.384 121.072 33.224 120.016 34.824C118.96 36.392 117.44 37.624 115.456 38.52C113.472 39.384 111.12 39.816 108.4 39.816C105.68 39.816 103.264 39.384 101.152 38.52C99.0718 37.656 97.2798 36.504 95.7758 35.064L99.7598 30.696C101.04 31.784 102.352 32.6 103.696 33.144C105.072 33.688 106.56 33.96 108.16 33.96C109.792 33.96 111.072 33.608 112 32.904C112.96 32.168 113.44 31.16 113.44 29.88C113.44 29.048 113.264 28.36 112.912 27.816C112.56 27.24 111.952 26.728 111.088 26.28C110.224 25.832 108.976 25.352 107.344 24.84C103.664 23.72 101.04 22.344 99.4718 20.712C97.9358 19.08 97.1678 17.016 97.1678 14.52C97.1678 12.6 97.6798 10.92 98.7038 9.48C99.7278 8.008 101.152 6.888 102.976 6.12C104.8 5.32 106.864 4.92 109.168 4.92ZM133.373 13.512V39H125.789V13.512H133.373ZM129.533 0.0719976C130.845 0.0719976 131.917 0.487998 132.749 1.32C133.613 2.12 134.045 3.144 134.045 4.392C134.045 5.64 133.613 6.68 132.749 7.512C131.917 8.312 130.845 8.712 129.533 8.712C128.221 8.712 127.149 8.312 126.317 7.512C125.485 6.68 125.069 5.64 125.069 4.392C125.069 3.144 125.485 2.12 126.317 1.32C127.149 0.487998 128.221 0.0719976 129.533 0.0719976ZM146.103 39.816C143.895 39.816 142.167 39.192 140.919 37.944C139.703 36.664 139.095 34.856 139.095 32.52V3.384L146.679 2.568V32.232C146.679 33.288 147.111 33.816 147.975 33.816C148.423 33.816 148.839 33.736 149.223 33.576L150.711 38.952C149.335 39.528 147.799 39.816 146.103 39.816ZM175.053 13.512L167.037 39H158.061L149.853 13.512H158.109L162.621 33.24L167.325 13.512H175.053ZM196.904 31.608C196.904 32.568 197.032 33.272 197.288 33.72C197.576 34.168 198.024 34.504 198.632 34.728L197.048 39.672C195.48 39.544 194.2 39.208 193.208 38.664C192.216 38.088 191.448 37.192 190.904 35.976C189.24 38.536 186.68 39.816 183.224 39.816C180.696 39.816 178.68 39.08 177.176 37.608C175.672 36.136 174.92 34.216 174.92 31.848C174.92 29.064 175.944 26.936 177.992 25.464C180.04 23.992 183 23.256 186.872 23.256H189.464V22.152C189.464 20.648 189.144 19.624 188.504 19.08C187.864 18.504 186.744 18.216 185.144 18.216C184.312 18.216 183.304 18.344 182.12 18.6C180.936 18.824 179.72 19.144 178.472 19.56L176.744 14.568C178.344 13.96 179.976 13.496 181.64 13.176C183.336 12.856 184.904 12.696 186.344 12.696C189.992 12.696 192.664 13.448 194.36 14.952C196.056 16.456 196.904 18.712 196.904 21.72V31.608ZM185.432 34.392C187.16 34.392 188.504 33.576 189.464 31.944V27.432H187.592C185.864 27.432 184.568 27.736 183.704 28.344C182.872 28.952 182.456 29.896 182.456 31.176C182.456 32.2 182.712 33 183.224 33.576C183.768 34.12 184.504 34.392 185.432 34.392Z" fill="#141414"/>
</svg>
